<svg width="29" height="18" viewBox="0 0 29 18" fill="none" xmlns="http://www.w3.org/2000/svg">
<path d="M0.512314 5.46698C0.634371 5.38024 0.772165 5.49235 0.879995 5.63995C0.913598 5.68574 0.882789 5.87885 0.905688 5.91921C0.950034 5.99785 1.00084 5.9053 1.04414 5.99821C1.05845 6.02996 1.02002 6.3366 1.03556 6.36284C1.12086 6.50441 1.21702 6.43112 1.30757 6.50155C1.76304 6.84946 2.23412 6.98343 2.72117 7.13793C2.88074 7.1886 3.07325 7.4734 3.24386 7.35468C3.26384 7.34055 3.25801 7.06968 3.26223 7.04745C3.32805 6.70726 3.29687 7.25316 3.33377 7.32656C3.48084 7.61636 3.64922 7.64435 3.7987 7.54221C3.86213 7.49796 3.80773 6.95941 3.86574 7.26211C3.86979 7.28256 3.84962 7.56973 3.86626 7.60065C3.90402 7.67018 3.97855 7.61986 4.00842 7.64304C4.06598 7.68917 4.07569 7.6864 4.1308 7.69037C4.20626 7.69829 4.29411 7.84218 4.37566 7.77787C4.39306 7.76329 4.37323 7.46841 4.40118 7.41855C4.42913 7.36877 4.50158 7.39443 4.52554 7.4641C4.5495 7.53381 4.53703 7.76531 4.54092 7.81843C4.57305 8.2668 4.66288 7.64693 4.67359 7.63165C4.87274 7.37164 5.04067 7.72601 5.22678 7.72558C5.3681 7.72451 5.51939 7.60801 5.65376 7.62401C5.81383 7.6442 5.95016 7.80365 6.10602 7.77573C6.12246 7.77312 6.10212 7.42672 6.12216 7.42284C6.33479 7.38184 6.54664 7.4185 6.76088 7.65089C6.78242 7.6745 6.75701 7.97887 6.77869 8.02065C6.91128 8.26972 7.12384 8.86844 7.18961 7.54334C7.27868 7.59423 7.3864 7.64656 7.46823 7.91266C7.52107 8.08392 7.47493 8.41583 7.5365 8.27374C7.55039 8.24208 7.52866 7.9521 7.54969 7.92656C7.63819 7.81932 7.73703 7.91249 7.82329 7.76145C7.84082 7.73005 7.83265 7.4701 7.83713 7.42321C7.87466 7.04349 7.95426 7.66938 7.97052 7.71472C8.09381 8.05281 8.17854 7.91793 8.28835 7.92463C8.31386 7.92633 8.27854 7.57752 8.30307 7.56661C8.43084 7.51468 8.5634 7.54265 8.6901 7.6956C8.71872 7.73046 8.69775 8.02837 8.71169 8.06024C8.77309 8.19717 8.77689 7.63508 8.83529 7.75554C8.84759 7.78021 8.84517 8.03499 8.8478 8.06293C8.88917 8.50142 8.9081 7.8788 8.91654 7.86492C9.02321 7.67538 9.1045 8.32359 9.2104 8.2297C9.22298 8.21781 9.18834 7.8961 9.22403 7.88238C9.46029 7.78913 9.71444 7.87277 9.95695 8.12568C9.99468 8.16456 9.97324 8.40715 9.97617 8.43694C10.0236 8.9024 10.0352 8.27721 10.0467 8.25344C10.1376 8.08216 10.236 8.6042 10.2858 7.85878C10.6911 8.10855 11.0817 7.68176 11.4957 8.33921C11.5009 8.34682 11.4989 8.65467 11.5092 8.66852C11.6324 8.83854 11.6011 8.36087 11.6683 7.77427C11.6854 7.62697 11.7631 8.33157 11.7697 8.3832C11.7938 8.57345 11.7837 9.03161 11.7912 9.06839C11.8526 9.35715 11.8085 7.84377 11.8828 7.84159C11.8852 7.84406 11.8816 8.12289 11.8886 8.15044C11.9104 8.23696 11.9274 8.12581 11.9488 8.22128C11.9977 8.44219 12.03 9.17732 12.0864 8.74779C12.0934 8.69205 12.0616 7.83374 12.1281 7.87283C12.1355 7.87739 12.1498 7.87932 12.1672 7.88095L12.0861 7.88537C12.1326 7.88654 12.2002 7.88424 12.2272 7.9221C12.2646 7.97462 12.2664 8.25228 12.2698 8.26401C12.3897 8.62084 12.3696 8.77485 12.4613 9.31066C12.553 9.84442 12.4273 8.56316 12.4324 8.41846C12.4376 8.27416 12.528 8.56925 12.5529 8.6724C12.5779 8.7756 12.574 8.95249 12.5932 9.01044C12.7201 9.38888 12.577 8.37034 12.5894 8.16409C12.6191 7.67567 12.7614 8.62139 12.8364 8.70849C12.8566 8.73201 12.8222 8.51681 12.8363 8.4951C12.8921 8.41202 12.9572 8.70518 13.0028 8.42665C13.0098 8.38131 13.0161 7.80427 13.0928 8.22016C13.1039 8.28013 13.1107 8.51844 13.1429 8.56896C13.1909 8.64479 13.2685 8.68971 13.304 8.60646C13.3302 8.54488 13.2568 8.15806 13.3081 8.27551C13.331 8.32796 13.3199 8.55939 13.361 8.63887C13.402 8.71835 13.4851 8.70026 13.518 8.68912C13.5501 8.6779 13.5035 8.38365 13.5042 8.36345C13.5093 8.24768 13.5578 8.09891 13.5633 8.09872C13.8336 8.03591 14.1387 8.50893 14.3929 8.31547C14.4128 8.30073 14.3659 7.99035 14.3686 7.98488C14.4269 7.84665 14.4573 8.68178 14.5372 8.95396C14.463 8.32192 14.5049 8.43336 14.5479 8.35861C14.5685 8.32207 14.5292 8.07847 14.5287 8.05316C14.5246 7.67723 14.6012 8.15517 14.6186 8.25276C14.6819 8.6118 14.6624 8.18161 14.7051 8.42156C14.7476 8.65969 14.7478 9.01951 14.7968 9.00959C14.7861 8.78164 14.6855 8.19378 14.7123 8.09384C14.8114 7.71612 15.1235 8.15118 15.2403 8.18653C15.3553 8.22212 15.39 8.17573 15.4643 8.24991C15.5995 8.38386 15.5046 7.95034 15.5526 7.74104C15.6002 7.53177 15.695 8.61485 15.7332 8.84554C15.7717 9.0761 15.7546 8.83606 15.7831 8.96191C15.8116 9.08773 15.8021 9.24887 15.8389 9.29296C15.8759 9.337 15.9096 8.91441 15.8904 8.67066C15.8499 8.15426 15.7469 7.61973 15.849 7.79942C15.8549 7.8101 15.8753 8.0955 15.8962 8.12201C16.0614 8.32323 16.2104 8.31806 16.3742 8.49288C16.3973 8.5173 16.421 8.83477 16.4349 8.85255C16.5797 9.0386 16.4677 8.51272 16.4526 7.91412C16.5428 8.70144 16.6424 9.17728 16.7314 9.17C16.7863 9.16568 16.7305 8.82401 16.7324 8.57761C16.7328 8.50334 16.803 8.73355 16.7877 8.57138C16.7375 8.04126 16.6214 7.45616 16.7432 7.67867C16.7487 7.68928 16.7763 7.97945 16.7923 7.99503C16.8955 8.09717 16.8299 7.54447 16.9152 7.46423C16.9817 7.40134 17.1616 7.718 17.2558 7.75967C17.3855 8.64102 17.4373 8.42697 17.3767 7.81489C17.4349 7.83148 17.4908 7.78771 17.5567 7.86334C17.5795 7.88908 17.6073 8.14577 17.614 8.17295C17.7174 8.59925 17.6485 8.00515 17.6565 7.98018C17.7501 7.73478 17.9266 8.16487 17.9781 7.70744C17.9799 7.69097 17.884 7.07961 17.9917 7.51963C17.9991 7.54997 18.0055 7.83443 18.0669 7.84612C18.127 7.85807 18.2944 8.1658 18.3247 7.86916C18.3325 7.79768 18.2907 7.29485 18.3998 7.67397C18.4146 7.72545 18.4404 7.90114 18.4657 7.99692C18.5469 8.302 18.4481 7.68426 18.5728 8.20161C18.6978 8.71887 18.8318 9.09883 18.8479 8.72267C18.8486 8.71168 18.776 8.22091 18.803 8.22372C18.8466 8.22856 18.9237 8.31882 18.9658 8.30726C18.9863 8.30147 18.9135 8.00206 18.9161 7.99583C19.0198 7.79953 19.1699 8.04904 19.3409 8.13457C19.3727 8.15079 19.3618 7.72381 19.4836 8.03681C19.6189 8.37897 19.883 9.8685 19.946 9.48546C19.9734 9.33162 19.6079 7.44857 19.9296 8.3933C20.0574 8.11022 20.3542 8.56012 20.4532 8.17037C20.4578 8.15306 20.3461 7.62907 20.3666 7.63111C20.3975 7.63507 20.4791 7.87209 20.504 7.8824C20.61 7.93162 20.6314 7.70348 20.7217 7.7122C20.7559 7.71496 20.8166 7.96661 20.8586 7.96948C20.9007 7.97204 20.8295 7.63809 20.9261 7.78098C20.9333 7.79165 20.9421 7.80757 20.9521 7.82767C21.0482 8.01095 21.2576 8.54616 21.3272 8.60071C21.1195 7.94632 21.1592 7.94851 21.1649 7.75609C21.1658 7.71883 21.0793 7.49571 21.0758 7.46637C21.0596 7.34214 21.1426 7.52335 21.1217 7.38908C21.1167 7.35682 21.0436 7.13406 21.0353 7.09514C20.9623 6.75569 21.1861 7.23694 21.2258 7.32045C21.3763 7.63773 21.2967 7.3427 21.3707 7.46255C21.4449 7.58227 21.4556 7.76006 21.5182 7.8267C21.6484 7.96427 21.7319 7.89473 21.8109 7.87754C21.8419 7.86937 21.7146 7.58259 21.7166 7.57459C21.7495 7.47824 21.9283 7.76688 21.7424 7.17076C22.353 8.66314 21.7235 7.01092 21.9223 7.28022C21.9382 7.30203 22.2222 8.0095 22.2351 8.12444C22.2478 8.23938 22.1217 8.03248 22.1453 8.21001C22.1514 8.25146 22.3484 8.94041 22.3553 8.98394C22.4135 9.32303 22.0126 8.25667 21.9886 8.19887C21.7242 7.57672 21.9251 8.32222 21.9249 8.37874C21.9289 8.63602 21.8098 8.50786 21.8013 8.6946C21.7956 8.81534 22.0306 9.52351 21.9884 9.51367C21.8462 9.48183 21.4856 8.50469 21.6585 9.39742C21.6953 9.58781 21.9677 10.3569 21.6883 9.77306C21.6704 9.73637 21.4323 9.19654 21.5092 9.56137C21.5185 9.60577 21.5855 9.81833 21.5902 9.85198C21.5834 9.85191 21.5646 9.86208 21.5578 9.8619C21.558 9.86313 21.5581 9.86412 21.5581 9.86485C21.5543 10.0007 21.4736 9.82711 21.4545 9.92715C21.435 10.0273 21.4184 10.1728 21.3451 10.1098C21.3007 10.0722 21.1416 9.65697 21.0981 9.55654C20.9744 9.26682 21.0673 9.77232 20.9422 9.41447C20.8175 9.0545 20.7128 8.4848 20.5856 8.26486C20.7447 8.8615 20.9046 9.47481 21.0624 10.0754C20.9074 10.0947 20.7111 9.93924 20.5696 10.0024C20.5522 10.0108 20.6507 10.3284 20.6339 10.3458C20.5619 10.4178 20.4323 10.2057 20.3678 10.3177C20.3171 10.4058 20.322 10.7654 20.2695 10.868C20.0698 10.1888 20.0196 10.4457 19.9299 10.399C19.8986 10.383 19.8606 10.1981 19.8289 10.1419C19.7104 9.93445 19.8739 10.538 19.8749 10.6382C19.8778 11.0663 19.5806 9.68463 19.4923 9.73848C19.4873 9.74091 19.5761 10.4916 19.5762 10.5395C19.5814 10.8505 19.5152 10.2843 19.4699 10.2366C19.3875 10.1494 19.3073 9.98187 19.2781 10.2123C19.2697 10.2806 19.3065 10.7517 19.1962 10.403C19.1818 10.3573 19.1383 10.1121 19.1311 10.0986C19.0058 9.87496 19.1496 10.644 19.1519 10.9131C19.154 11.1822 18.9844 10.6642 18.9424 10.5136C18.8326 10.1242 18.9405 10.339 18.9354 10.2997C18.8744 9.83281 18.8382 9.92176 18.792 9.88973C18.6493 9.13594 18.6062 9.19046 18.7456 9.85936C18.7611 9.93238 18.7775 9.85673 18.792 9.88973C18.8922 10.6365 18.8478 10.7424 18.6598 10.0613C18.5719 9.74201 18.5349 9.35834 18.4662 9.51301C18.4358 9.58267 18.5416 10.1004 18.5289 10.2487C18.4996 10.5872 18.3031 10.1205 18.2306 10.211C18.2035 10.244 18.281 10.5243 18.2639 10.5567C18.2184 10.6436 18.1317 10.4378 18.0907 10.5569C18.0871 10.568 18.1474 10.8649 18.13 10.8716C17.999 10.9279 17.8459 10.7553 17.7037 10.7712C17.6337 10.7792 17.5335 10.9626 17.4575 10.9396C17.3236 10.902 17.1124 10.4871 17.0213 10.6074C16.9613 10.6847 17.0171 10.9826 17.0147 11.1911C17.0113 11.595 16.8156 10.8986 16.7877 10.7904C16.7869 10.7868 16.8364 10.7082 16.7845 10.5583C16.7237 10.2398 16.7882 10.7889 16.7877 10.7904C16.7695 10.7205 16.6419 10.668 16.6253 10.7285C16.6169 10.7614 16.6608 11.045 16.6557 11.0568C16.5336 11.3315 16.3782 11.4245 16.204 11.3107C16.2005 11.3053 16.1658 10.9863 16.158 10.9776C16.0489 10.8472 16.0336 11.2444 15.9867 11.4847C15.9386 11.725 15.8679 11.6547 15.7586 11.113C15.7086 11.1886 15.5973 10.9564 15.5345 10.8148C15.471 10.6734 15.5351 11.2947 15.5323 11.3074C15.4474 11.7148 15.3278 11.3684 15.1898 11.3277C15.1234 11.3073 15.0054 11.4112 14.9419 11.4867C14.8937 11.5472 14.8456 11.4051 14.8052 11.5035C14.7997 11.5166 14.8358 11.7924 14.8348 11.8033C14.8133 12.1401 14.7692 11.4612 14.7449 11.3417C14.6565 10.907 14.6065 10.6759 14.5555 10.89C14.544 10.939 14.5948 11.9178 14.5711 11.9778C14.5395 12.054 14.5184 11.7035 14.4862 11.7922C14.4833 11.7995 14.5061 12.0147 14.4797 12.0078C14.3586 11.9786 14.2112 11.8668 14.094 11.9001C14.0775 11.9039 14.1326 12.2434 14.1093 12.2545C14.0006 12.3061 13.8706 12.306 13.7456 12.1565C13.7147 12.1186 13.7088 11.8777 13.6961 11.8072C13.6193 11.3807 13.6276 12.0103 13.6202 12.023C13.4447 12.3425 13.2379 11.7913 13.0561 12.0793C13.0464 12.0961 13.0192 12.774 12.9283 12.2029C12.9217 12.165 12.832 11.5804 12.8345 11.9853C12.8347 12.0107 12.8852 12.3112 12.8414 12.284C12.7976 12.2569 12.749 12.4649 12.6625 12.1374C12.6352 12.0342 12.5412 11.4514 12.5278 11.9237C12.5274 11.9493 12.5321 12.5994 12.4898 12.5445C12.4472 12.5346 12.3137 12.569 12.2718 12.5564C12.2615 12.5399 12.251 12.466 12.2411 12.3036C12.2337 12.1832 12.2214 11.4085 12.168 11.807C12.1578 11.8843 12.1834 12.0566 12.1543 12.1652C12.1098 12.3326 12.0404 12.1266 11.9871 12.473C11.9771 12.5344 11.9464 13.0611 11.9018 12.6629C11.8949 12.6005 11.8995 12.3417 11.8802 12.3131C11.789 12.1763 11.6951 12.3515 11.6019 12.1746C11.5686 12.1125 11.5754 11.694 11.5395 11.5827C11.5036 11.4715 11.4333 11.3653 11.402 11.5572C11.3707 11.7491 11.4248 12.4146 11.3725 12.4691C11.1495 12.7058 10.9125 12.32 10.6798 12.2679C10.6453 12.2601 10.6782 12.4979 10.6286 12.5035C10.4454 12.5253 10.1285 12.7555 9.95574 12.2521C9.81811 11.8489 9.97417 11.5367 9.87279 11.3735C9.82418 11.2957 9.78811 12.0714 9.77707 12.096C9.67009 12.3459 9.58319 12.0043 9.48501 12.1115C9.46464 12.1337 9.49089 12.4473 9.47347 12.4628C9.414 12.5184 9.34753 12.3794 9.28965 12.4061C9.26369 12.4188 9.27283 12.6585 9.24835 12.6404C9.18966 12.5999 9.1369 12.5 9.07744 12.2762C9.07202 12.2558 9.10106 11.9569 9.05861 11.9465C8.98987 11.9306 8.9009 11.7103 8.82515 11.9406C8.80272 12.0099 8.81056 12.558 8.75375 12.1803C8.74192 12.1014 8.74483 11.443 8.69547 12.0126C8.68727 12.1073 8.60058 12.876 8.54423 12.3822C8.52938 12.2523 8.4885 11.7142 8.46146 11.7992C8.45781 11.8128 8.47766 12.107 8.45458 12.1361C8.37267 12.2334 8.28643 12.2032 8.20283 12.2967C8.18051 12.3222 8.21854 12.6264 8.18509 12.6547C8.09333 12.733 7.97441 12.657 7.88303 12.5627C7.8491 12.5274 7.86911 12.2747 7.86633 12.2473C7.82167 11.801 7.80593 12.4043 7.7933 12.4396C7.71475 12.6512 7.64949 12.3686 7.57526 12.4444C7.55474 12.4646 7.57262 12.7519 7.56877 12.7776C7.52871 13.0286 7.55492 12.5119 7.52737 12.4552C7.45034 12.2949 7.36653 12.3189 7.29033 12.3564C7.26234 12.3705 7.29718 12.7036 7.27198 12.7125C7.12234 12.7714 6.96741 12.7408 6.81972 12.5581C6.79194 12.523 6.80744 12.2662 6.80129 12.2076C6.759 11.7976 6.70491 12.3576 6.692 12.411C6.63314 12.6547 6.6082 12.4279 6.55503 12.4705C6.29469 12.6831 5.97052 12.5337 5.72326 12.4409C5.40073 12.3214 5.15186 12.0765 4.84368 12.1382C4.82409 12.1418 4.8418 12.4834 4.82485 12.4909C4.60627 12.5719 4.39133 12.4366 4.17147 12.5328C4.15329 12.54 4.17565 12.8641 4.14628 12.8867C4.086 12.9352 4.01053 12.9167 3.95172 12.8125C3.92305 12.7623 3.96615 12.485 3.93728 12.4401C3.87004 12.335 3.79747 12.3109 3.72598 12.3617C3.69547 12.384 3.73577 12.7158 3.69644 12.719C3.42921 12.7476 3.16331 12.7994 2.90441 12.3641C2.88645 12.3342 2.8869 11.661 2.84443 11.789C2.83672 11.9757 2.8313 12.1953 2.82492 12.3949C2.43327 12.4925 2.05024 12.2467 1.65922 12.1943C1.64249 12.1922 1.65674 12.5497 1.62416 12.5474C1.43586 12.5342 1.24904 12.6245 1.07319 12.2605C1.0559 12.2249 1.09805 11.5989 1.03766 11.6907C1.02683 11.7075 0.939477 11.7866 0.909664 11.9213C0.905509 11.9417 0.90512 12.2349 0.876923 12.2419C0.712479 12.2774 0.552798 12.2008 0.401488 12.0115C0.377535 11.9804 0.425583 11.6711 0.408811 11.6463C0.29079 11.4726 0.133631 11.6991 0.0293898 11.4072C-0.0389119 11.2107 0.0333369 10.6757 0.0322336 10.1434C0.0320977 10.0683 -0.0161067 10.0525 0.00624702 9.7446C0.0623829 8.97034 0.153039 8.12486 0.210019 7.29934C0.222317 7.12154 0.147196 7.30803 0.217324 6.88162C0.222115 6.8531 0.276561 6.71408 0.298628 6.56926C0.313913 6.46914 0.325633 6.15513 0.350592 6.02739C0.375427 5.89976 0.371161 6.16341 0.407583 6.01385C0.444033 5.86239 0.460459 5.50547 0.512314 5.46698ZM15.2485 10.1826C15.1714 9.88945 15.2866 10.9819 15.3052 10.7154C15.3059 10.7012 15.2524 10.197 15.2485 10.1826ZM20.5076 9.13548C20.3316 8.68035 20.4654 9.38122 20.5983 9.73366C20.7325 10.0853 20.5618 9.27324 20.5076 9.13548ZM21.0051 8.63415C20.8357 8.28533 21.2501 9.78696 21.2373 9.46308C21.2367 9.44474 21.0151 8.65437 21.0051 8.63415ZM0.24112 10.0077C0.241555 9.99311 0.206807 9.97629 0.204895 9.99065C0.159816 10.3372 0.230022 10.3706 0.24112 10.0077ZM21.4668 8.08512C21.3802 7.89192 21.4001 8.14161 21.5073 8.38212C21.594 8.57546 21.5752 8.32522 21.4668 8.08512ZM12.8869 9.24231C12.8847 9.22608 12.8586 9.21366 12.8675 9.30576C12.8962 9.6024 12.9232 9.51548 12.8869 9.24231ZM22.4028 7.72031C22.2431 7.72087 21.694 6.55396 21.8894 6.6329C21.9252 6.64696 21.9845 7.03661 22.0604 7.1313C22.2002 7.30323 21.9412 6.53666 22.1649 6.91347C22.2058 6.98247 22.413 7.72292 22.4032 7.72207C22.4031 7.72148 22.4029 7.7209 22.4028 7.72031ZM15.0767 8.87416C15.0743 8.85982 15.038 8.85001 15.0387 8.86441C15.0584 9.21312 15.1318 9.23306 15.0767 8.87416ZM11.4108 8.64161C11.4083 8.6107 11.3273 8.58358 11.3252 8.61216C11.2962 9.18325 11.4601 9.23976 11.4108 8.64161ZM17.2606 7.78298C17.2453 7.43053 17.2815 7.38328 17.3765 7.81447C17.3371 7.79679 17.3003 7.79886 17.2606 7.78298Z" fill="white"/>
<path d="M21.0044 0.0475612C21.0156 -0.0776656 21.0135 0.0656087 20.9933 0.231361C20.9879 0.283886 20.8504 0.422604 20.8427 0.466865C20.8281 0.553481 20.921 0.506333 20.9035 0.608202C20.8972 0.642807 20.6866 0.869118 20.6848 0.900148C20.673 1.06586 20.8012 1.06678 20.8468 1.18465C21.0776 1.77007 21.4964 2.20934 21.9122 2.66682C22.0518 2.81899 22.0966 3.18822 22.3381 3.20351C22.3666 3.20518 22.5059 2.97261 22.5222 2.95673C22.7738 2.71447 22.4482 3.15395 22.4477 3.24118C22.4416 3.58264 22.6066 3.72275 22.8157 3.7361C22.9059 3.74167 23.1375 3.25014 23.0365 3.54526C23.0299 3.56529 22.8545 3.79391 22.8556 3.83139C22.8592 3.91652 22.962 3.92284 22.9811 3.96271C23.0164 4.04032 23.028 4.04454 23.0839 4.08521C23.1603 4.14385 23.1722 4.3225 23.293 4.32362C23.3191 4.32306 23.4564 4.06083 23.5126 4.03764C23.5685 4.01436 23.6322 4.0858 23.6192 4.16018C23.6065 4.23489 23.4693 4.42194 23.4449 4.46934C23.2373 4.86889 23.6638 4.40596 23.6834 4.40041C24.0346 4.31672 24.0174 4.72639 24.2135 4.85121C24.3614 4.94448 24.5846 4.9487 24.716 5.05151C24.8747 5.17667 24.9297 5.40083 25.1097 5.4823C25.1284 5.49118 25.2934 5.18555 25.3167 5.19578C25.5616 5.30309 25.7656 5.47631 25.8647 5.81457C25.8746 5.84885 25.6838 6.08827 25.6841 6.13795C25.6908 6.43729 25.5892 7.08197 26.3735 6.01022C26.4409 6.11323 26.524 6.22795 26.4671 6.50695C26.4304 6.68648 26.2029 6.93523 26.3442 6.85653C26.3758 6.83911 26.5094 6.58047 26.5453 6.57298C26.6044 6.56072 26.6487 6.57545 26.6912 6.59382C26.7494 6.61751 26.8038 6.64956 26.9016 6.60154C26.9347 6.58499 27.0627 6.35852 27.0913 6.32106C27.3226 6.01741 27.0733 6.5976 27.067 6.64651C27.015 7.00867 27.1726 6.94366 27.2882 7.01793C27.315 7.03533 27.4528 6.71214 27.4848 6.71798C27.6508 6.75398 27.7969 6.86879 27.9001 7.11575C27.9217 7.17109 27.7259 7.39939 27.7276 7.43841C27.7342 7.60655 28.0643 7.15028 28.0983 7.32369C28.1049 7.35926 27.9424 7.55604 27.9296 7.58135C27.7205 7.97217 28.1519 7.52144 28.1843 7.53057C28.5347 7.6182 28.3873 8.22573 28.4818 8.88918C28.4878 8.98355 28.8284 8.76565 28.8156 9.06442C28.8097 9.13317 28.7991 9.20067 28.7846 9.26553C28.7478 9.70616 28.4387 10.1499 27.9896 10.3392C27.918 10.37 27.7515 10.1875 27.7245 10.1738C27.3152 9.94333 27.7895 10.3504 27.7924 10.3847C27.8115 10.6313 27.337 10.3704 27.776 10.9812C27.0835 11.301 26.6415 11.9711 25.8543 11.5528C25.8449 11.548 25.7512 11.2546 25.7334 11.2461C25.5195 11.139 25.713 11.5775 25.7792 12.1715C25.7931 12.3215 25.4957 11.6745 25.4754 11.6264C25.3937 11.4519 25.2875 11.0057 25.2682 10.9729C25.119 10.7148 25.561 12.1632 25.4546 12.194C25.4508 12.1925 25.3885 11.9205 25.3725 11.8962C25.323 11.8198 25.3266 11.9337 25.2758 11.8481C25.1581 11.6499 24.9546 10.943 24.9784 11.3787C24.9811 11.4352 25.2087 12.2638 25.1071 12.247C25.0671 12.2396 24.9089 12.2914 24.853 12.2464C24.7971 12.2017 24.7683 11.9247 24.7625 11.9137C24.5707 11.5808 24.5827 11.423 24.418 10.9039C24.2568 10.3861 24.5292 11.6443 24.5341 11.7899C24.5387 11.9353 24.3958 11.6556 24.357 11.5561C24.3173 11.4568 24.3089 11.2794 24.2803 11.2243C24.0939 10.8644 24.3472 11.862 24.3447 12.0703C24.3352 12.5639 24.0921 11.6373 23.9957 11.5587C23.969 11.5375 24.0235 11.7489 24.0065 11.7723C23.9381 11.8624 23.843 11.5761 23.7936 11.8603C23.7861 11.9065 23.7974 12.4855 23.6861 12.0762C23.6704 12.0172 23.6543 11.779 23.6123 11.7314C23.5497 11.6599 23.4509 11.6217 23.4078 11.7081C23.3759 11.772 23.4769 12.1537 23.4089 12.0403C23.3788 11.9896 23.3887 11.7566 23.335 11.6803C23.2816 11.604 23.1762 11.6286 23.1365 11.6419C23.0969 11.6554 23.1587 11.9471 23.158 11.9674C23.1533 12.0838 23.0936 12.2364 23.0866 12.237C22.7407 12.3192 22.36 11.8609 22.049 12.0694C22.0246 12.0853 22.0832 12.3939 22.0799 12.3995C22.0088 12.5415 21.9686 11.7058 21.8688 11.4376C21.9626 12.0671 21.9104 11.9578 21.8575 12.0354C21.8319 12.0734 21.8819 12.3152 21.8825 12.3406C21.8892 12.7174 21.7924 12.2429 21.7705 12.1461C21.6905 11.79 21.7183 12.2201 21.6642 11.9823C21.6099 11.7462 21.6063 11.3854 21.546 11.3986C21.5617 11.6265 21.6904 12.2094 21.6593 12.3113C21.5436 12.6961 21.1649 12.2835 21.0217 12.2606C20.8805 12.2368 20.8452 12.2867 20.7531 12.221C20.5862 12.1031 20.7239 12.5258 20.6856 12.7408C20.6493 12.9558 20.4505 11.8869 20.3873 11.6616C20.323 11.4367 20.3621 11.6744 20.3175 11.5529C20.2725 11.4316 20.2724 11.2686 20.2228 11.2306C20.1725 11.1926 20.1626 11.6226 20.211 11.8625C20.311 12.371 20.4854 12.8868 20.3529 12.724C20.345 12.7144 20.2889 12.4337 20.2621 12.4109C20.0488 12.2397 19.8823 12.2752 19.6589 12.1489C19.6279 12.1311 19.5395 11.8251 19.5195 11.8117C19.3082 11.6733 19.5419 12.1586 19.7006 12.7361C19.4193 11.9955 19.1953 11.5616 19.0763 11.609C19.0619 11.6147 19.0572 11.6325 19.0593 11.6592C19.069 11.7611 19.1765 11.9955 19.2267 12.1854C19.2462 12.2574 19.1026 12.0623 19.1641 12.2132C19.3667 12.706 19.6593 13.2259 19.464 13.0567C19.4549 13.0486 19.3415 12.78 19.3192 12.7712C19.1727 12.7142 19.409 13.2182 19.3449 13.3267C19.2955 13.4114 19.0017 13.184 18.8861 13.186C18.4525 12.4077 18.4601 12.638 18.7362 13.1881C18.6669 13.1993 18.6241 13.2652 18.5257 13.2257C18.4919 13.2125 18.3698 12.9848 18.3529 12.9625C18.0867 12.6128 18.3743 13.1376 18.3751 13.1647C18.3659 13.4387 18.0094 13.1308 18.1337 13.5815C18.138 13.5978 18.4809 14.1129 18.1937 13.7621C18.1737 13.7381 18.0548 13.478 17.9848 13.4999C17.9159 13.5208 17.6119 13.3295 17.7006 13.62C17.7214 13.6904 17.9739 14.1282 17.7015 13.8419C17.6644 13.8031 17.5637 13.6568 17.497 13.5834C17.2832 13.3504 17.647 13.8594 17.2974 13.4577C16.948 13.0559 16.6384 12.7915 16.78 13.1464C16.7838 13.157 17.0709 13.5619 17.041 13.5756C16.9927 13.5973 16.8703 13.5631 16.8302 13.6C16.8111 13.6177 17.0185 13.8458 17.0186 13.853C16.9959 14.0944 16.7282 13.9609 16.5086 13.9934C16.4673 13.9994 16.6715 14.3785 16.4027 14.1733C16.1069 13.9503 15.159 12.7703 15.2654 13.1587C15.3057 13.3164 16.537 14.7881 15.7752 14.1397C15.7691 14.4809 15.2583 14.2659 15.3318 14.6852C15.3349 14.704 15.685 15.11 15.6623 15.1221C15.6277 15.1394 15.4379 14.9753 15.4075 14.9821C15.2757 15.0063 15.3542 15.2299 15.2556 15.2816C15.2184 15.3017 15.0454 15.1091 15.0007 15.1335C14.956 15.1582 15.1755 15.4205 15.0125 15.3514C14.8887 15.2983 14.3575 14.8457 14.253 14.8362C14.7408 15.3194 14.6989 15.3417 14.772 15.5261C14.7863 15.5618 14.9686 15.7171 14.9842 15.7426C15.0515 15.8499 14.8906 15.7313 14.967 15.8449C14.9852 15.8723 15.1528 16.0363 15.1772 16.0679C15.3914 16.3427 14.9593 16.0305 14.884 15.9763C14.5978 15.7703 14.7997 16.0002 14.6737 15.9328C14.5476 15.8655 14.4656 15.7035 14.3736 15.6787C14.1828 15.6278 14.1239 15.7431 14.0484 15.8059C14.0192 15.832 14.2628 16.0302 14.2639 16.039C14.2646 16.1525 13.9691 15.9793 14.3868 16.4443C13.1878 15.3656 14.4652 16.5882 14.1534 16.4467C14.1284 16.4351 13.5716 15.9144 13.5151 15.8118C13.4585 15.7094 13.667 15.8363 13.575 15.6805C13.5535 15.6438 13.0849 15.1007 13.06 15.0642C12.8653 14.779 13.692 15.5628 13.7395 15.6036C14.2547 16.042 13.7569 15.4498 13.7334 15.3976C13.6252 15.159 13.7984 15.2104 13.73 15.0312C13.6864 14.9148 13.1546 14.3913 13.2007 14.3767C13.3538 14.3276 14.131 15.0215 13.5795 14.2949C13.462 14.1398 12.8602 13.5886 13.3898 13.9646C13.4232 13.9883 13.8946 14.3456 13.6616 14.0535C13.6322 14.0167 13.463 13.8498 13.454 13.8305C13.397 13.7045 13.5547 13.8143 13.5282 13.7123C13.5021 13.6099 13.4528 13.4679 13.5538 13.4809C13.6145 13.4885 13.9609 13.7685 14.0499 13.8329C14.3055 14.0192 13.9836 13.6174 14.2715 13.8646C14.5604 14.1135 14.9233 14.5662 15.1522 14.6855C14.7212 14.2432 14.2817 13.7866 13.85 13.3402C13.997 13.2262 14.266 13.2437 14.3823 13.0956C14.3964 13.0767 14.1507 12.8523 14.1601 12.8257C14.2012 12.7141 14.4307 12.8233 14.4478 12.6791C14.4599 12.5668 14.2936 12.2426 14.3033 12.1145C14.8184 12.6012 14.7579 12.3333 14.8753 12.3162C14.9159 12.3102 15.0387 12.4536 15.0975 12.4839C15.3163 12.5952 14.8741 12.1524 14.8291 12.0613C14.6399 11.6705 15.5682 12.7361 15.6398 12.6297C15.6433 12.6249 15.2221 11.9948 15.2018 11.9507C15.0633 11.6679 15.3791 12.1442 15.4501 12.1576C15.58 12.1821 15.7372 12.2858 15.6752 12.0524C15.6559 11.9839 15.4189 11.5722 15.6892 11.8215C15.7245 11.8542 15.8756 12.0522 15.8892 12.06C16.1226 12.1858 15.6434 11.5675 15.5329 11.318C15.4231 11.068 15.8305 11.437 15.939 11.5502C16.2221 11.8412 16.0112 11.7113 16.0327 11.7446C16.2912 12.1388 16.2968 12.0329 16.3624 12.0335C16.8278 12.6434 16.8552 12.5657 16.4284 12.0319C16.3815 11.9738 16.3917 12.0554 16.3624 12.0335C15.9478 11.4037 15.9642 11.2716 16.4498 11.7884C16.6768 12.0312 16.8694 12.3658 16.8872 12.1805C16.8959 12.0965 16.5737 11.6774 16.5335 11.5297C16.4444 11.1909 16.8517 11.51 16.9094 11.3795C16.9313 11.3315 16.7365 11.1134 16.7465 11.0719C16.7737 10.9606 16.9518 11.1042 16.9629 10.9661C16.9639 10.9532 16.7872 10.7066 16.8077 10.6893C16.961 10.5523 17.2113 10.6289 17.3955 10.5312C17.4837 10.4841 17.565 10.25 17.6754 10.2305C17.8675 10.1935 18.2586 10.4921 18.3494 10.3323C18.3937 10.2573 18.3306 10.0977 18.2748 9.93724C18.2549 9.87469 18.2365 9.81182 18.2277 9.75287C18.1729 9.33834 18.6324 9.92497 18.6893 10.0224C18.6909 10.0255 18.6197 10.1309 18.7294 10.2544C18.8782 10.5436 18.6882 10.0244 18.6893 10.0224C18.7334 10.0813 18.9422 10.0769 18.9606 10.01C18.9704 9.9731 18.865 9.7061 18.8723 9.69183C19.0517 9.3581 19.2999 9.21144 19.5786 9.28014C19.5844 9.28468 19.6556 9.59758 19.6679 9.60443C19.8418 9.70838 19.8332 9.30796 19.9009 9.05464C19.9679 8.80182 20.0764 8.85969 20.2462 9.38766C20.3147 9.30348 20.4777 9.52096 20.566 9.65539C20.6554 9.78959 20.5573 9.17285 20.5611 9.15963C20.6765 8.73882 20.8395 9.07484 21.0269 9.10269C21.1178 9.11671 21.2698 9.00331 21.3511 8.92317C21.4153 8.85875 21.4773 8.99803 21.5292 8.89661C21.5362 8.88306 21.4904 8.60864 21.4916 8.59767C21.5199 8.25821 21.5751 8.9367 21.6059 9.05506C21.7177 9.4856 21.7805 9.71447 21.8436 9.49678C21.8579 9.44694 21.7925 8.46843 21.8231 8.40678C21.8628 8.32844 21.8891 8.67879 21.9292 8.58796C21.9327 8.58051 21.9043 8.36592 21.9369 8.37137C22.0881 8.39383 22.2584 8.49919 22.3999 8.45904C22.4192 8.45439 22.3501 8.11715 22.3772 8.10483C22.5047 8.04731 22.6468 8.04133 22.7913 8.18362C22.827 8.21971 22.841 8.46043 22.8574 8.53022C22.9576 8.95233 22.9276 8.32286 22.9348 8.30976C23.1105 7.98007 23.3601 8.51627 23.5203 8.21403C23.5304 8.1962 23.4916 7.51984 23.6317 8.08047C23.6406 8.11787 23.7876 8.69084 23.7435 8.28832C23.7405 8.26318 23.6615 7.96901 23.7049 7.99211C23.7498 8.01486 23.7671 7.80439 23.8855 8.12051C23.9221 8.22026 24.0879 8.78691 24.0337 8.31797C24.033 8.28461 23.8568 7.23616 24.0486 7.94297C24.0802 8.0593 24.26 8.81319 24.2193 8.41394C24.2106 8.33673 24.151 8.17351 24.1499 8.06249C24.1464 7.89183 24.2513 8.07869 24.1997 7.7346C24.1918 7.67335 24.0716 7.16077 24.2055 7.53734C24.2269 7.59619 24.2939 7.84618 24.3148 7.87013C24.4169 7.9844 24.4173 7.80214 24.5271 7.95279C24.5664 8.00542 24.7002 8.4018 24.7611 8.49873C24.8218 8.59576 24.9075 8.67799 24.8565 8.49222C24.8032 8.30739 24.53 7.69922 24.5289 7.64179C24.5092 7.39867 24.7025 7.73261 24.7373 7.77965C24.7404 7.788 24.6009 7.59445 24.5905 7.59668C24.5685 7.58115 24.2454 7.59897 24.6273 7.9495C24.9493 8.19955 25.2279 8.33727 25.3653 8.42885C25.4385 8.45974 24.7582 8.08837 24.7323 8.08522C24.4928 8.00875 24.7952 8.17524 24.6928 8.15034C24.6707 8.1473 24.3755 8.03988 24.3593 8.04062C24.3144 8.04355 24.3783 8.08052 24.3997 8.09709C24.3555 8.29322 24.3245 8.50117 24.3082 8.72273C24.2922 9.13341 24.0506 9.08916 24.1333 9.4846C24.3917 10.4313 24.8494 10.7065 25.1653 10.7381C25.1919 10.7362 25.3212 10.4386 25.4381 10.5457C25.6233 10.7031 25.7914 10.5331 25.6578 10.7223C25.6163 10.7775 25.3263 11.2427 25.5165 10.9151C25.5551 10.846 25.9067 10.2893 25.5816 10.7573C25.5266 10.8344 25.0857 11.465 25.2897 11.0121C25.3444 10.8935 25.5807 10.4082 25.5119 10.4666C25.5016 10.4763 25.3716 10.7411 25.3352 10.7535C25.209 10.7927 25.1294 10.7124 24.9841 10.7363C24.9448 10.7431 24.8354 11.0313 24.781 11.0325C24.6314 11.0365 24.5179 10.8818 24.4454 10.7275C24.4188 10.67 24.5793 10.4718 24.59 10.4462C24.769 10.0327 24.4276 10.5309 24.391 10.5498C24.3116 10.5915 24.2688 10.5782 24.2399 10.5446C24.2038 10.495 24.2101 10.3849 24.1348 10.3942C24.1025 10.3975 23.9662 10.6514 23.9483 10.6704C23.771 10.8552 24.0771 10.4375 24.0787 10.3714C24.0839 10.1849 23.9843 10.1501 23.884 10.1308C23.8468 10.124 23.7039 10.4279 23.6726 10.4185C23.4831 10.368 23.3399 10.2409 23.282 9.98756C23.2717 9.93955 23.4264 9.7335 23.4515 9.68004C23.6281 9.30649 23.27 9.74243 23.2277 9.77879C23.0348 9.94504 23.1313 9.73752 23.0529 9.73825C22.6642 9.74294 22.4075 9.40243 22.1983 9.15894C21.9273 8.84443 21.7964 8.47019 21.4423 8.31674C21.4201 8.3068 21.2549 8.60672 21.2334 8.60181C20.96 8.52294 20.809 8.26534 20.5283 8.19917C20.5057 8.1933 20.3547 8.48151 20.3124 8.48115C20.2234 8.48161 20.1536 8.41461 20.1484 8.28732C20.1454 8.22572 20.3391 8.02061 20.3331 7.9634C20.3199 7.8299 20.2568 7.7605 20.1542 7.7547C20.1103 7.75294 19.9744 8.0602 19.9316 8.03637C19.64 7.88226 19.3305 7.7433 19.2941 7.19989C19.2912 7.16229 19.6531 6.5945 19.5399 6.67352C19.4316 6.82573 19.3079 7.00733 19.1941 7.17133C18.7295 6.98442 18.463 6.51476 18.074 6.18865C18.0571 6.17462 17.8786 6.48568 17.8447 6.45986C17.6521 6.31358 17.3979 6.24862 17.4057 5.80864C17.4063 5.7655 17.7993 5.27637 17.6807 5.30486C17.6593 5.31031 17.5182 5.30683 17.4114 5.39607C17.3955 5.40975 17.2317 5.65337 17.1972 5.63724C16.9926 5.53323 16.8473 5.33018 16.7693 5.02556C16.7583 4.977 16.9959 4.77036 16.9891 4.73309C16.9449 4.47376 16.6014 4.48435 16.5964 4.05812C16.6002 3.77377 17.054 3.47222 17.4089 3.06688C17.4617 3.01466 17.3935 2.89854 17.6492 2.72324C18.3008 2.30132 19.0104 1.83347 19.6985 1.37383C19.8423 1.26284 19.786 1.54807 20.0924 1.21736C20.1112 1.18907 20.1511 0.991189 20.2617 0.897739C20.333 0.824446 20.6038 0.662142 20.6843 0.554143C20.7634 0.444735 20.5349 0.580825 20.6333 0.462345C20.7333 0.342915 21.0038 0.109117 21.0044 0.0475612ZM20.959 10.2585C21.0622 10.5457 20.8983 9.45947 20.8773 9.72903C20.8765 9.74335 20.9538 10.2445 20.959 10.2585ZM14.8402 13.8418C15.2276 14.1415 14.7713 13.5923 14.4753 13.3576C14.1786 13.1241 14.7222 13.7516 14.8402 13.8418ZM14.5572 14.6162C14.8859 14.8277 13.7945 13.7161 13.9529 14.0032C13.9617 14.0195 14.5381 14.604 14.5572 14.6162ZM17.7636 3.23833C17.7731 3.2273 17.7442 3.1776 17.733 3.18669C17.4595 3.40599 17.5248 3.5129 17.7636 3.23833ZM14.3226 15.4038C14.4914 15.5324 14.3686 15.31 14.1588 15.1498C13.9899 15.021 14.1124 15.2439 14.3226 15.4038ZM23.9044 11.0303C23.9079 11.0463 23.9406 11.0557 23.9244 10.9646C23.8724 10.6712 23.8453 10.761 23.9044 11.0303ZM13.4858 16.2955C13.6528 16.2069 14.6554 17.0209 14.4144 17.0617C14.3708 17.069 14.1721 16.7218 14.0572 16.6738C13.8479 16.5864 14.3909 17.1871 14.0202 16.9478C13.9526 16.9037 13.4743 16.2985 13.4848 16.2941C13.4851 16.2945 13.4855 16.295 13.4858 16.2955ZM21.1999 11.5562C21.2032 11.5704 21.2475 11.5773 21.2462 11.5629C21.2151 11.2147 21.1243 11.2008 21.1999 11.5562ZM25.8687 11.2264C25.8819 11.2547 25.9953 11.2404 25.9881 11.2122C25.8181 10.666 25.6105 10.6846 25.8687 11.2264ZM18.8731 13.1661C19.0076 13.493 18.9879 13.5519 18.7366 13.1884C18.7856 13.187 18.825 13.1684 18.8731 13.1661Z" fill="white"/>
</svg>
